<svg width="1366" height="768" viewBox="0 0 1366 768" fill="none" xmlns="http://www.w3.org/2000/svg">
<g clip-path="url(#clip0_360_1381)">
<path d="M1366 0H0V768H1366V0Z" fill="#3BE275"/>
<path d="M943.61 970.981C836.933 900.325 730.782 829.636 680.819 742.189C630.857 654.743 637.551 550.805 662.371 447.218C687.191 343.63 730.079 240.692 817.456 147.086C904.834 53.4808 1036.17 -30.7593 1167.52 -114.999L2012.42 363.479L943.61 970.981Z" fill="#39DF73"/>
<path d="M1077.28 895.034C983.993 833.28 890.994 771.36 847.007 694.898C803.545 618.404 809.622 527.334 831.193 436.778C852.765 346.222 890.649 255.981 966.703 174.138C1043.28 92.262 1158.09 18.4854 1273.13 -55.1582L2012.42 363.51L1077.28 895.034Z" fill="#35D96E"/>
<path d="M1210.96 819.086C1130.82 766.102 1051.21 713.085 1013.72 647.575C976.233 582.065 981.4 504.028 1000.01 426.338C1018.63 348.647 1050.93 271.435 1116.18 201.322C1181.73 131.043 1280.24 67.8632 1378.74 4.68304L2012.42 363.542L1210.96 819.086Z" fill="#31D369"/>
<path d="M1344.34 743.304C1277.88 699.057 1211.13 654.975 1179.91 600.284C1148.92 545.725 1153.18 480.723 1168.84 415.898C1184.2 351.239 1211.2 286.89 1265.43 228.373C1320.18 169.825 1402.15 117.108 1484.35 64.5243L2012.42 363.573L1344.34 743.304Z" fill="#2DCD64"/>
<path d="M1478.02 667.356C1424.94 632.011 1371.34 596.699 1346.62 552.96C1321.61 509.386 1325.02 457.119 1337.66 405.458C1350.07 353.664 1371.25 302.211 1415.2 255.392C1458.63 208.606 1524.3 166.486 1589.97 124.366L2012.42 363.605L1478.02 667.356Z" fill="#29C760"/>
<path d="M1611.69 591.408C1571.77 564.834 1531.55 538.424 1512.81 505.669C1494.3 473.047 1496.79 433.813 1505.96 395.051C1515.64 356.256 1531.53 317.666 1564.45 282.444C1597.08 247.387 1646.21 215.731 1695.58 184.207L2012.42 363.636L1611.69 591.408Z" fill="#24C25B"/>
<path d="M218.994 -189C299.9 -111.893 380.366 -34.8589 398.846 45.7493C417.327 126.358 373.659 210.386 323.313 288.475C273.244 366.484 216.66 438.709 130.677 500.718C44.4164 562.808 -71.2439 614.682 -186.904 666.556L-784.348 104.741L218.994 -189Z" fill="#39DF73"/>
<path d="M93.7231 -145.415C164.29 -78.0311 235.021 -10.4926 251.178 60.0697C267.171 130.478 228.753 204.064 184.754 272.402C141.197 340.814 91.6183 403.904 16.2718 458.145C-59.0746 512.385 -160.466 557.855 -261.58 603.245L-784.348 111.652L93.7231 -145.415Z" fill="#35D96E"/>
<path d="M-31.8418 -101.734C28.5482 -43.9198 89.2155 13.8131 103.048 74.3281C117.157 134.762 84.2677 197.824 46.6182 256.409C8.9687 314.995 -33.6048 368.95 -98.1488 415.575C-162.857 462.045 -249.423 500.949 -336.265 539.934L-784.348 118.572L-31.8418 -101.734Z" fill="#31D369"/>
<path d="M-157.112 -58.1489C-106.898 -9.90355 -56.4062 38.2607 -44.6208 88.6487C-33.2766 138.963 -60.6389 191.502 -91.9403 240.336C-123.242 289.171 -158.647 334.146 -212.554 373.002C-266.348 411.622 -338.644 444.122 -410.941 476.622L-784.348 125.483L-157.112 -58.1489Z" fill="#2DCD64"/>
<path d="M-282.677 -14.4676C-242.363 24.1266 -201.771 62.6396 -192.751 102.907C-183.454 143.093 -205.565 185.189 -230.518 224.27C-255.47 263.352 -283.983 299.427 -326.974 330.432C-369.966 361.436 -427.878 387.296 -485.626 413.311L-784.348 132.403L-282.677 -14.4676Z" fill="#29C760"/>
</g>
<defs>
<clipPath id="clip0_360_1381">
<rect width="1366" height="768" fill="white"/>
</clipPath>
</defs>
</svg>
